<svg width="146" height="23" viewBox="0 0 146 23" fill="none" xmlns="http://www.w3.org/2000/svg">
<g id="left-logo-menuIcon">
<path id="Logo EdMachina" d="M18.6925 6.85869C21.0847 6.85869 23.2824 8.07482 24.3393 9.81579V4.66083C24.3393 3.25678 25.4851 2.11849 26.8984 2.11849V22.2515C25.4851 22.2515 24.3393 21.1133 24.3393 19.7092V19.4051C23.4213 21.0906 21.4463 22.4999 18.6645 22.4999C14.5754 22.4999 11.4322 19.3223 11.4322 14.6242C11.4322 9.89857 14.5755 6.85869 18.6925 6.85869ZM19.1653 9.04203C16.3838 9.04203 14.0191 11.0592 14.0191 14.6242C14.0191 18.189 16.3837 20.2892 19.1653 20.2892C21.9472 20.2892 24.3393 18.2166 24.3393 14.6518C24.3393 11.142 21.9472 9.04203 19.1653 9.04203ZM66.5861 6.85869C69.4237 6.85869 71.3706 8.29585 72.2609 9.87098V9.64965C72.2609 8.2456 73.4067 7.10732 74.82 7.10732V22.2515C73.4067 22.2515 72.2609 21.1133 72.2609 19.7092V19.4327C71.3428 21.0633 69.3679 22.4999 66.5583 22.4999C62.497 22.4999 59.3538 19.3223 59.3538 14.6242C59.3538 9.89857 62.497 6.85869 66.5861 6.85869ZM67.0869 9.04203C64.3053 9.04203 61.9406 11.0592 61.9406 14.6242C61.9406 18.189 64.3053 20.2892 67.0869 20.2892C69.8687 20.2892 72.2609 18.2166 72.2609 14.6518C72.2609 11.142 69.8687 9.04203 67.0869 9.04203ZM84.1934 6.85881C79.8541 6.85881 76.7664 9.89869 76.7664 14.652C76.7664 19.4601 79.8541 22.5 84.1934 22.5C87.9763 22.5 90.4521 20.3997 91.2312 17.3877H88.5052C87.9486 19.2946 86.4466 20.3721 84.1934 20.3721C81.4118 20.3721 79.3533 18.4101 79.3533 14.652C79.3533 10.9487 81.4118 8.98667 84.1934 8.98667C86.4466 8.98667 87.9763 10.1476 88.5052 11.9714H91.2312C90.4521 8.79352 87.9763 6.85881 84.1934 6.85881ZM95.7369 1.80155C94.3387 1.80155 93.2052 2.92764 93.2052 4.31658V22.2515H95.7369V13.8783C95.7369 10.6171 97.5171 9.01437 100.104 9.01437C102.663 9.01437 104.36 10.5895 104.36 13.6849V22.2515H106.863V13.3253C106.863 8.98649 104.165 6.83133 100.772 6.83133C98.6298 6.83133 96.7382 7.68787 95.7369 9.2906V1.80155H95.7369ZM112.148 7.1074C110.75 7.1074 109.617 8.23349 109.617 9.62244V22.2513H112.148V7.1074ZM126.223 22.2514H128.727V13.3255C128.727 8.98667 126.028 6.83121 122.495 6.83121C120.437 6.83121 118.601 7.68805 117.6 9.26289V7.10743C116.202 7.10743 115.068 8.23352 115.068 9.62247V22.2514H117.6V13.8782C117.6 10.617 119.38 9.01426 121.967 9.01426C124.526 9.01426 126.223 10.5897 126.223 13.6847V22.2514ZM137.766 6.85869C140.604 6.85869 142.551 8.29585 143.441 9.87098V9.64965C143.441 8.2456 144.587 7.10732 146 7.10732V22.2515C144.587 22.2515 143.441 21.1133 143.441 19.7092V19.4327C142.523 21.0633 140.548 22.4999 137.738 22.4999C133.677 22.4999 130.534 19.3223 130.534 14.6242C130.534 9.89857 133.677 6.85869 137.766 6.85869ZM138.267 9.04203C135.485 9.04203 133.121 11.0592 133.121 14.6242C133.121 18.189 135.485 20.2892 138.267 20.2892C141.049 20.2892 143.441 18.2166 143.441 14.6518C143.441 11.142 141.049 9.04203 138.267 9.04203ZM38.45 2.11852C37.0519 2.11852 35.9184 3.24461 35.9184 4.63356V22.3797H38.45V2.11852ZM47.0123 22.3797H49.5437L44.8889 4.5531C44.5152 3.11971 43.213 2.11852 41.7226 2.11852L47.0123 22.3797ZM55.7095 22.3797H58.2408L53.5861 4.5531C53.2124 3.11971 51.9102 2.11852 50.4198 2.11852L55.7095 22.3797ZM10.4313 3.05956H0V22.3486H10.4313V20.2759H2.5313V13.6434H9.59693V11.5707H2.5313V5.13224H10.4313V3.05956ZM109.198 2.17359C109.198 3.09781 109.952 3.84718 110.882 3.84718C111.813 3.84718 112.567 3.09781 112.567 2.17359C112.567 1.24908 111.813 0.5 110.882 0.5C109.952 0.5 109.198 1.24908 109.198 2.17359Z" fill="white"/>
</g>
</svg>
